# xmcd
#
# Track frame offsets: 
#        150
#        10680
#        20577
#        38897
#        48932
#        62835
#        73590
#        81817
#        93915
#        103162
#
# Disc length: 1521 seconds
#
# Revision: 3
# Processed by: cddbd v1.5.1PL2 Copyright (c) Steve Scherf et al.
# Submitted via: ExactAudioCopy v0.95b3
#
DISCID=7905ef0a
DTITLE=Alan Price - O Lucky Man!
DYEAR=1973
DGENRE=Soundtrack
TTITLE0=O Lucky Man!
TTITLE1=Poor People
TTITLE2=Sell Sell
TTITLE3=Pastoral
TTITLE4=Arrival
TTITLE5=Look Over Your Shoulder
TTITLE6=Justice
TTITLE7=My Home Town
TTITLE8=Changes
TTITLE9=O Lucky Man!
EXTD=Movie soundtrack
EXTT0=
EXTT1=
EXTT2=
EXTT3=
EXTT4=
EXTT5=
EXTT6=
EXTT7=
EXTT8=
EXTT9=
PLAYORDER=
